<mxfile host="drawio-plugin" modified="2022-12-16T09:55:01.993Z" agent="5.0 (Windows NT 6.2; Win64; x64) AppleWebKit/537.36 (KHTML, like Gecko) Chrome/81.0.4044.113 Safari/537.36" version="13.7.9" etag="IqVvor8w6iOmHQbUzEq8" type="embed"><diagram id="AYISpNbD8kH_cXJ39DJD" name="Page-1"><mxGraphModel dx="564" dy="454" grid="1" gridSize="10" guides="1" tooltips="1" connect="1" arrows="1" fold="1" page="1" pageScale="1" pageWidth="850" pageHeight="1100" math="0" shadow="0"><root><mxCell id="0"/><mxCell id="1" parent="0"/><mxCell id="8" value="" style="edgeStyle=orthogonalEdgeStyle;rounded=0;orthogonalLoop=1;jettySize=auto;html=1;" edge="1" parent="1" source="2" target="7"><mxGeometry relative="1" as="geometry"/></mxCell><mxCell id="2" value="" style="ellipse;html=1;shape=startState;fillColor=#000000;strokeColor=#ff0000;" vertex="1" parent="1"><mxGeometry x="410" y="20" width="30" height="30" as="geometry"/></mxCell><mxCell id="4" value="" style="ellipse;html=1;shape=endState;fillColor=#000000;strokeColor=#ff0000;" vertex="1" parent="1"><mxGeometry x="410" y="720" width="30" height="30" as="geometry"/></mxCell><mxCell id="10" style="edgeStyle=orthogonalEdgeStyle;rounded=0;orthogonalLoop=1;jettySize=auto;html=1;" edge="1" parent="1" source="7"><mxGeometry relative="1" as="geometry"><mxPoint x="425" y="180" as="targetPoint"/></mxGeometry></mxCell><mxCell id="7" value="Doctor started" style="rounded=1;whiteSpace=wrap;html=1;" vertex="1" parent="1"><mxGeometry x="365" y="80" width="120" height="60" as="geometry"/></mxCell><mxCell id="9" value="" style="endArrow=none;html=1;" edge="1" parent="1"><mxGeometry width="50" height="50" relative="1" as="geometry"><mxPoint x="280" y="180" as="sourcePoint"/><mxPoint x="570" y="180" as="targetPoint"/></mxGeometry></mxCell><mxCell id="13" value="" style="edgeStyle=orthogonalEdgeStyle;rounded=0;orthogonalLoop=1;jettySize=auto;html=1;" edge="1" parent="1" source="11" target="12"><mxGeometry relative="1" as="geometry"/></mxCell><mxCell id="11" value="Ping Google" style="rounded=1;whiteSpace=wrap;html=1;" vertex="1" parent="1"><mxGeometry x="230" y="240" width="120" height="60" as="geometry"/></mxCell><mxCell id="15" value="" style="edgeStyle=orthogonalEdgeStyle;rounded=0;orthogonalLoop=1;jettySize=auto;html=1;" edge="1" parent="1" source="12" target="14"><mxGeometry relative="1" as="geometry"/></mxCell><mxCell id="12" value="Check localhost" style="rounded=1;whiteSpace=wrap;html=1;" vertex="1" parent="1"><mxGeometry x="230" y="340" width="120" height="60" as="geometry"/></mxCell><mxCell id="14" value="Check Connection speed" style="whiteSpace=wrap;html=1;rounded=1;" vertex="1" parent="1"><mxGeometry x="230" y="440" width="120" height="60" as="geometry"/></mxCell><mxCell id="18" value="" style="edgeStyle=orthogonalEdgeStyle;rounded=0;orthogonalLoop=1;jettySize=auto;html=1;" edge="1" parent="1" source="16" target="17"><mxGeometry relative="1" as="geometry"/></mxCell><mxCell id="16" value="Check Docker" style="rounded=1;whiteSpace=wrap;html=1;" vertex="1" parent="1"><mxGeometry x="380" y="240" width="120" height="60" as="geometry"/></mxCell><mxCell id="20" value="" style="edgeStyle=orthogonalEdgeStyle;rounded=0;orthogonalLoop=1;jettySize=auto;html=1;" edge="1" parent="1" source="17" target="19"><mxGeometry relative="1" as="geometry"/></mxCell><mxCell id="17" value="Run docker --version" style="rounded=1;whiteSpace=wrap;html=1;" vertex="1" parent="1"><mxGeometry x="380" y="340" width="120" height="60" as="geometry"/></mxCell><mxCell id="19" value="run docker info" style="rounded=1;whiteSpace=wrap;html=1;" vertex="1" parent="1"><mxGeometry x="380" y="440" width="120" height="60" as="geometry"/></mxCell><mxCell id="21" value="" style="endArrow=classic;html=1;" edge="1" parent="1"><mxGeometry width="50" height="50" relative="1" as="geometry"><mxPoint x="420" y="180" as="sourcePoint"/><mxPoint x="293" y="240" as="targetPoint"/></mxGeometry></mxCell><mxCell id="22" value="" style="endArrow=classic;html=1;entryX=0.5;entryY=0;entryDx=0;entryDy=0;" edge="1" parent="1" target="16"><mxGeometry width="50" height="50" relative="1" as="geometry"><mxPoint x="430" y="180" as="sourcePoint"/><mxPoint x="490" y="200" as="targetPoint"/></mxGeometry></mxCell><mxCell id="26" value="" style="edgeStyle=orthogonalEdgeStyle;rounded=0;orthogonalLoop=1;jettySize=auto;html=1;" edge="1" parent="1" source="23" target="25"><mxGeometry relative="1" as="geometry"/></mxCell><mxCell id="23" value="Check Docker Compose" style="rounded=1;whiteSpace=wrap;html=1;" vertex="1" parent="1"><mxGeometry x="530" y="240" width="120" height="60" as="geometry"/></mxCell><mxCell id="24" value="" style="endArrow=classic;html=1;entryX=0.5;entryY=0;entryDx=0;entryDy=0;" edge="1" parent="1" target="23"><mxGeometry width="50" height="50" relative="1" as="geometry"><mxPoint x="430" y="180" as="sourcePoint"/><mxPoint x="450" y="250" as="targetPoint"/></mxGeometry></mxCell><mxCell id="28" value="" style="edgeStyle=orthogonalEdgeStyle;rounded=0;orthogonalLoop=1;jettySize=auto;html=1;" edge="1" parent="1" source="25" target="27"><mxGeometry relative="1" as="geometry"/></mxCell><mxCell id="25" value="check if docker-compose or docker compose" style="whiteSpace=wrap;html=1;rounded=1;" vertex="1" parent="1"><mxGeometry x="530" y="340" width="120" height="60" as="geometry"/></mxCell><mxCell id="27" value="check version" style="whiteSpace=wrap;html=1;rounded=1;" vertex="1" parent="1"><mxGeometry x="530" y="440" width="120" height="60" as="geometry"/></mxCell><mxCell id="29" value="" style="endArrow=none;html=1;" edge="1" parent="1"><mxGeometry width="50" height="50" relative="1" as="geometry"><mxPoint x="290" y="549" as="sourcePoint"/><mxPoint x="580" y="549" as="targetPoint"/></mxGeometry></mxCell></root></mxGraphModel></diagram></mxfile>